<?xml version="1.0" encoding="UTF-8"?>
<svg width="14px" height="15px" viewBox="0 0 14 15" version="1.1" xmlns="http://www.w3.org/2000/svg" xmlns:xlink="http://www.w3.org/1999/xlink">
    <!-- Generator: Sketch 52.5 (67469) - http://www.bohemiancoding.com/sketch -->
    <title>controls copy 4</title>
    <desc>Created with Sketch.</desc>
    <g id="Page-1" stroke="none" stroke-width="1" fill="none" fill-rule="evenodd">
        <g id="NEW-Copy-2" transform="translate(-642.000000, -1469.000000)" fill="#3F5992" fill-rule="nonzero">
            <g id="CURE-Plan" transform="translate(58.000000, 1437.000000)">
                <g id="filter-white" transform="translate(338.000000, 20.000000)">
                    <g id="controls-copy-4" transform="translate(246.000000, 12.000000)">
                        <path d="M1.81481481,3.62962963 C2.72714815,3.62962963 3.48237037,2.95192593 3.60888889,2.07407407 L13.7407407,2.07407407 C13.8841111,2.07407407 14,1.95818519 14,1.81481481 C14,1.67144444 13.8841111,1.55555556 13.7407407,1.55555556 L3.60888889,1.55555556 C3.48237037,0.677703704 2.72714815,0 1.81481481,0 C0.814074074,0 0,0.814333333 0,1.81481481 C0,2.8152963 0.814074074,3.62962963 1.81481481,3.62962963 Z M1.81481481,0.518518519 C2.52959259,0.518518519 3.11111111,1.10003704 3.11111111,1.81481481 C3.11111111,2.52959259 2.52959259,3.11111111 1.81481481,3.11111111 C1.10003704,3.11111111 0.518518519,2.52959259 0.518518519,1.81481481 C0.518518519,1.10003704 1.10003704,0.518518519 1.81481481,0.518518519 Z" id="Shape"></path>
                        <path d="M12.1851852,10.8888889 C11.2728519,10.8888889 10.5176296,11.5665926 10.3911111,12.4444444 L0.259259259,12.4444444 C0.116148148,12.4444444 0,12.5603333 0,12.7037037 C0,12.8470741 0.116148148,12.962963 0.259259259,12.962963 L10.3911111,12.962963 C10.5176296,13.8408148 11.2728519,14.5185185 12.1851852,14.5185185 C13.1856667,14.5185185 14,13.7041852 14,12.7037037 C14,11.7032222 13.1856667,10.8888889 12.1851852,10.8888889 Z M12.1851852,14 C11.4704074,14 10.8888889,13.4184815 10.8888889,12.7037037 C10.8888889,11.9889259 11.4704074,11.4074074 12.1851852,11.4074074 C12.899963,11.4074074 13.4814815,11.9889259 13.4814815,12.7037037 C13.4814815,13.4184815 12.899963,14 12.1851852,14 Z" id="Shape"></path>
                        <path d="M13.7407407,7 L8.91022222,7 C8.80755556,6.06614815 8.01448148,5.33711111 7.05366667,5.33711111 C6.09285185,5.33711111 5.29977778,6.06640741 5.19711111,7 L0.259259259,7 C0.116148148,7 0,7.11588889 0,7.25925926 C0,7.40262963 0.116148148,7.51851852 0.259259259,7.51851852 L5.21344444,7.51851852 C5.36303704,8.4 6.13018519,9.07407407 7.05366667,9.07407407 C7.97714815,9.07407407 8.74403704,8.4 8.89362963,7.51851852 L13.7407407,7.51851852 C13.8841111,7.51851852 14,7.40262963 14,7.25925926 C14,7.11588889 13.8841111,7 13.7407407,7 Z M7.05366667,8.55555556 C6.30933333,8.55555556 5.7037037,7.94992593 5.7037037,7.20559259 C5.7037037,6.46125926 6.30933333,5.85562963 7.05366667,5.85562963 C7.798,5.85562963 8.40362963,6.46125926 8.40362963,7.20559259 C8.40362963,7.94992593 7.798,8.55555556 7.05366667,8.55555556 Z" id="Shape"></path>
                    </g>
                </g>
            </g>
        </g>
    </g>
</svg>