<svg xmlns="http://www.w3.org/2000/svg" width="12" height="12" viewBox="0 0 12 12">
    <path fill="#A8C6DF" fill-rule="evenodd" d="M11.9 10.93L8.795 7.802a.347.347 0 0 1-.038-.437 4.778 4.778 0 0 0-.902-6.241C6.048-.42 3.297-.366 1.546 1.24a4.78 4.78 0 0 0-.151 6.895 4.77 4.77 0 0 0 5.998.603.345.345 0 0 1 .438.038l3.098 3.122a.343.343 0 0 0 .486 0l.485-.485a.343.343 0 0 0 0-.484zM2.364 7.166a3.406 3.406 0 0 1 0-4.81 3.4 3.4 0 0 1 4.805 0 3.406 3.406 0 0 1 0 4.81 3.4 3.4 0 0 1-4.805 0z"/>
</svg>
