<?xml version="1.0" encoding="UTF-8"?>
<svg width="40px" height="43px" viewBox="0 0 40 43" version="1.1" xmlns="http://www.w3.org/2000/svg" xmlns:xlink="http://www.w3.org/1999/xlink">
    <!-- Generator: Sketch 52.5 (67469) - http://www.bohemiancoding.com/sketch -->
    <title>Shape</title>
    <desc>Created with Sketch.</desc>
    <g id="Page-1" stroke="none" stroke-width="1" fill="none" fill-rule="evenodd">
        <g id="5-3" transform="translate(-562.000000, -778.000000)" fill="#FFFFFF" fill-rule="nonzero">
            <g id="ROUTE-ICONS" transform="translate(540.000000, 758.000000)">
                <path d="M60.2904094,20 L23.7095069,20 C22.7654533,20 22,20.7653696 22,21.7095069 L22,61.1412335 C22,62.085287 22.7653696,62.8507404 23.7095069,62.8507404 L55.160215,62.8507404 C56.1042685,62.8507404 56.8697219,62.0853707 56.8697219,61.1412335 L56.8697219,30.9643281 L60.2904931,30.9643281 C61.2345467,30.9643281 62,30.1989584 62,29.2548212 L62,21.7095069 C61.9998326,20.7653696 61.234463,20 60.2904094,20 Z M35.1641067,31.21164 L37.7254378,31.21164 L37.7254378,28.6503089 C37.7254378,27.7062554 38.4908074,26.9408021 39.4349446,26.9408021 C40.3790818,26.9408021 41.1444515,27.7061717 41.1444515,28.6503089 L41.1444515,31.21164 L43.7057825,31.21164 C44.6498361,31.21164 45.4152894,31.9770096 45.4152894,32.9211468 C45.4152894,33.8652841 44.6499198,34.6306537 43.7057825,34.6306537 L41.1444515,34.6306537 L41.1444515,37.1919848 C41.1444515,38.1360383 40.3790818,38.9014916 39.4349446,38.9014916 C38.4908074,38.9014916 37.7254378,38.136122 37.7254378,37.1919848 L37.7254378,34.6306537 L35.1641067,34.6306537 C34.2200532,34.6306537 33.4545999,33.8652841 33.4545999,32.9211468 C33.4545999,31.9770096 34.2198858,31.21164 35.1641067,31.21164 Z M48.9545695,56.4251505 L29.914985,56.4251505 C28.9709314,56.4251505 28.2054781,55.6597809 28.2054781,54.7156436 C28.2054781,53.7715064 28.9708477,53.0061368 29.914985,53.0061368 L48.9545695,53.0061368 C49.898623,53.0061368 50.6640764,53.7715064 50.6640764,54.7156436 C50.6640764,55.6597809 49.8987904,56.4251505 48.9545695,56.4251505 Z M48.9545695,51.1788743 L29.914985,51.1788743 C28.9709314,51.1788743 28.2054781,50.4135047 28.2054781,49.4693674 C28.2054781,48.5252302 28.9708477,47.7599443 29.914985,47.7599443 L48.9545695,47.7599443 C49.898623,47.7599443 50.6640764,48.5253139 50.6640764,49.4693674 C50.6640764,50.413421 49.8987904,51.1788743 48.9545695,51.1788743 Z M48.9545695,45.9325981 L29.914985,45.9325981 C28.9709314,45.9325981 28.2054781,45.1672285 28.2054781,44.2230912 C28.2054781,43.278954 28.9708477,42.5135844 29.914985,42.5135844 L48.9545695,42.5135844 C49.898623,42.5135844 50.6640764,43.278954 50.6640764,44.2230912 C50.6640764,45.1672285 49.8987904,45.9325981 48.9545695,45.9325981 Z M58.5808189,27.5453981 L56.8695545,27.5453981 L56.8695545,23.41893 L58.5808189,23.41893 L58.5808189,27.5453981 Z" id="Shape"></path>
            </g>
        </g>
    </g>
</svg>