<?xml version="1.0" encoding="UTF-8"?>
<svg width="22px" height="23px" viewBox="0 0 22 23" version="1.1" xmlns="http://www.w3.org/2000/svg" xmlns:xlink="http://www.w3.org/1999/xlink">
    <!-- Generator: Sketch 52.5 (67469) - http://www.bohemiancoding.com/sketch -->
    <title>Shape</title>
    <desc>Created with Sketch.</desc>
    <g id="Page-1" stroke="none" stroke-width="1" fill="none" fill-rule="evenodd">
        <g id="5-3" transform="translate(-569.000000, -1031.000000)" fill-rule="nonzero" stroke="#979797">
            <g id="ROUTE-ICONS" transform="translate(540.000000, 758.000000)">
                <g id="Group-2" transform="translate(14.046875, 258.156250)">
                    <path d="M35.030361,15.8851563 L16.7399097,15.8851563 C16.2678829,15.8851563 15.8851562,16.2678411 15.8851562,16.7399097 L15.8851562,36.455773 C15.8851562,36.9277998 16.2678411,37.3105264 16.7399097,37.3105264 L32.4652638,37.3105264 C32.9372905,37.3105264 33.3200172,36.9278416 33.3200172,36.455773 L33.3200172,21.3673203 L35.0304028,21.3673203 C35.5024296,21.3673203 35.8851563,20.9846355 35.8851563,20.5125669 L35.8851563,16.7399097 C35.8850726,16.2678411 35.5023877,15.8851563 35.030361,15.8851563 Z M22.4672096,21.4909762 L23.7478751,21.4909762 L23.7478751,20.2103107 C23.7478751,19.738284 24.13056,19.3555573 24.6026286,19.3555573 C25.0746972,19.3555573 25.457382,19.7382421 25.457382,20.2103107 L25.457382,21.4909762 L26.7380475,21.4909762 C27.2100743,21.4909762 27.5928009,21.8736611 27.5928009,22.3457297 C27.5928009,22.8177983 27.2101161,23.2004831 26.7380475,23.2004831 L25.457382,23.2004831 L25.457382,24.4811486 C25.457382,24.9531754 25.0746972,25.3359021 24.6026286,25.3359021 C24.13056,25.3359021 23.7478751,24.9532172 23.7478751,24.4811486 L23.7478751,23.2004831 L22.4672096,23.2004831 C21.9951828,23.2004831 21.6124562,22.8177983 21.6124562,22.3457297 C21.6124562,21.8736611 21.9950992,21.4909762 22.4672096,21.4909762 Z M29.362441,34.0977315 L19.8426487,34.0977315 C19.370622,34.0977315 18.9878953,33.7150467 18.9878953,33.2429781 C18.9878953,32.7709095 19.3705801,32.3882246 19.8426487,32.3882246 L29.362441,32.3882246 C29.8344678,32.3882246 30.2171944,32.7709095 30.2171944,33.2429781 C30.2171944,33.7150467 29.8345515,34.0977315 29.362441,34.0977315 Z M29.362441,31.4745934 L19.8426487,31.4745934 C19.370622,31.4745934 18.9878953,31.0919086 18.9878953,30.61984 C18.9878953,30.1477714 19.3705801,29.7651284 19.8426487,29.7651284 L29.362441,29.7651284 C29.8344678,29.7651284 30.2171944,30.1478132 30.2171944,30.61984 C30.2171944,31.0918667 29.8345515,31.4745934 29.362441,31.4745934 Z M29.362441,28.8514553 L19.8426487,28.8514553 C19.370622,28.8514553 18.9878953,28.4687705 18.9878953,27.9967019 C18.9878953,27.5246333 19.3705801,27.1419484 19.8426487,27.1419484 L29.362441,27.1419484 C29.8344678,27.1419484 30.2171944,27.5246333 30.2171944,27.9967019 C30.2171944,28.4687705 29.8345515,28.8514553 29.362441,28.8514553 Z M34.1755657,19.6578553 L33.3199335,19.6578553 L33.3199335,17.5946213 L34.1755657,17.5946213 L34.1755657,19.6578553 Z" id="Shape"></path>
                </g>
            </g>
        </g>
    </g>
</svg>