<?xml version="1.0" encoding="UTF-8"?>
<svg width="18px" height="18px" viewBox="0 0 18 18" version="1.1" xmlns="http://www.w3.org/2000/svg" xmlns:xlink="http://www.w3.org/1999/xlink">
    <!-- Generator: Sketch 52.5 (67469) - http://www.bohemiancoding.com/sketch -->
    <title>Shape</title>
    <desc>Created with Sketch.</desc>
    <g id="Page-1" stroke="none" stroke-width="1" fill="none" fill-rule="evenodd">
        <g id="NEW-Copy-2" transform="translate(-407.000000, -1467.000000)" fill="#FFFFFF" fill-rule="nonzero">
            <g id="CURE-Plan" transform="translate(58.000000, 1437.000000)">
                <g id="filter-white" transform="translate(338.000000, 20.000000)">
                    <path d="M28.8423503,27.0820399 L24.468071,22.7077605 C25.6414634,21.3587583 26.3518847,19.5986696 26.3518847,17.6749446 C26.3518847,13.4403548 22.9075388,10 18.6769401,10 C14.4423503,10 11.0019956,13.4443459 11.0019956,17.6749446 C11.0019956,21.9055432 14.4463415,25.3498891 18.6769401,25.3498891 C20.6006652,25.3498891 22.3607539,24.6394678 23.7097561,23.4660754 L28.0840355,27.8403548 C28.1878049,27.9441242 28.3274945,28 28.4631929,28 C28.5988914,28 28.7385809,27.9481153 28.8423503,27.8403548 C29.0498891,27.632816 29.0498891,27.2895787 28.8423503,27.0820399 Z M12.0756098,17.6749446 C12.0756098,14.0350333 15.0370288,11.0776053 18.672949,11.0776053 C22.3128603,11.0776053 25.2702882,14.0390244 25.2702882,17.6749446 C25.2702882,21.3108647 22.3128603,24.2762749 18.672949,24.2762749 C15.0370288,24.2762749 12.0756098,21.3148559 12.0756098,17.6749446 Z" id="Shape"></path>
                </g>
            </g>
        </g>
    </g>
</svg>